<?xml version="1.0" encoding="utf-8"?>
<svg version="1.1" xmlns="http://www.w3.org/2000/svg" xmlns:xlink="http://www.w3.org/1999/xlink"
    width="200" height="50" viewBox="0 0 200 50">
    <g transform="translate(5,2) scale(0.15,0.15)" fill="#19191A">
        <path class="st0"
            d="M198.9,118.1c15.8-3.6,36.9-25.4,36.9-57.7C235.9,23.7,205.5,0,161,0H29.5v99.4H0v40.9h29.5v102.1h142.8
            c46.5,0,76.2-29,76.2-68.3C248.4,139.2,222.7,119.4,198.9,118.1L198.9,118.1z M73.6,40.6h77.5c24.7,0,40.2,12.5,40.2,30
            c0,17.5-12.5,29-33,29H73.6V40.6L73.6,40.6z M162,201.8H73.6v-61.7h89c25.4,0,41.2,10.6,41.2,26.7
            C203.9,187.3,187.7,201.8,162,201.8L162,201.8z"/>
        <path class="st0"
            d="M357.2,55.1c-54.4,0-96.9,40.6-96.9,95.3c0,65.3,50.1,96,99.9,96c36.9,0,71.6-18.5,86.7-44.8l-32-23.4
            c-11.5,16.8-28.4,28.7-52.8,28.7c-25.1,0-48.8-14.2-55.7-37.6h144.4v-16.8C450.9,93.3,411.6,55.1,357.2,55.1L357.2,55.1z
            M306.4,132.6c5.9-22.4,26.1-37.9,51.4-37.9c25.1,0,45.2,15.5,50.5,37.9H306.4L306.4,132.6z"/>
        <path class="st0"
            d="M575.6,55.1c-23.7,0-45.5,7.6-62,23.4V60.3h-40.2v182h42.9V135.2c0-23.4,23.4-40.6,46.5-40.6
            c26,0,42.2,15.8,42.2,41.9v105.8h42.9V120C647.8,85.7,616.8,55.1,575.6,55.1L575.6,55.1z"/>
        <polygon class="st0"
            points="720.2,6.9 677.3,22.4 677.3,60.3 659.2,60.3 659.2,99.9 677.3,99.9 677.3,242.4 720.2,242.4 
            720.2,99.9 755.5,99.9 755.5,60.3 720.2,60.3 720.2,6.9 	"/>
        <polygon class="st0" points="774,242 816.9,242 816.9,0 774,0 774,242 	"/>
        <path class="st0"
            d="M934.1,55.1c-54.4,0-96.9,40.6-96.9,95.3c0,65.3,50.1,96,99.9,96c36.9,0,71.6-18.5,86.7-44.8l-32-23.4
            c-11.5,16.8-28.4,28.7-52.8,28.7c-25.1,0-48.8-14.2-55.7-37.6h144.4v-16.8C1027.8,93.3,988.5,55.1,934.1,55.1L934.1,55.1z
            M883.4,132.6c5.9-22.4,26-37.9,51.4-37.9c25.1,0,45.2,15.5,50.4,37.9H883.4L883.4,132.6z"/>
        <path class="st0"
            d="M1179.3,60.3v101.6c0,23.4-23.4,40.9-46.5,40.9c-26,0-42.2-16.2-42.2-41.9V60.3h-42.9v116.7
            c0,34.6,33.6,65.3,78.8,65.3c19.8,0,40.2-8.6,54.4-24.4v4.6c0,27.4-21.4,46.5-52.8,46.5c-20.4,0-45.2-6.6-63-20.1l-21.8,33
            c21.1,16.2,54.1,26.7,85.4,26.7c53.1,0,93.3-36.9,93.3-84.7V60.3H1179.3L1179.3,60.3z"/>
        <path class="st0"
            d="M1264.6,100.5c12.3,0,21.4-9.2,21.4-21.6c0-12.4-9.1-21.6-21.4-21.6c-12.3,0-21.5,9.2-21.5,21.6
            C1243.1,91.3,1252.3,100.5,1264.6,100.5L1264.6,100.5z M1264.6,95.9c-9.8,0-17-7.2-17-17c0-9.9,7.3-17.1,17-17.1
            c9.8,0,17,7.3,17,17.1C1281.6,88.7,1274.4,95.9,1264.6,95.9L1264.6,95.9z M1259.8,82.2h4l6.3,8.6h5.8l-6.7-9
            c2.9-1.1,4.9-4.2,4.9-7.4c0-4.5-3-6.9-7.2-6.9h-12.1v23.4h5V82.2L1259.8,82.2z M1265.4,71.9c2.4,0,3.6,0.8,3.6,2.5
            c0,2.2-1.2,3.4-3.6,3.4h-5.7v-5.9H1265.4L1265.4,71.9z"/>
    </g>
</svg>
