<?xml version="1.0" encoding="UTF-8"?>
<svg xmlns="http://www.w3.org/2000/svg" width="200" height="50" viewBox="0 0 200 50">
    <g id="bc548d3f-91d4-4faa-98b5-54c78080024b" transform="scale(0.5,0.5)"><path d="M388.44,30.83a7.32,7.32,0,1,1-7.3-7.3A7.3,7.3,0,0,1,388.44,30.83Zm-13.55,0a6.23,6.23,0,1,0,6.25-6.23A6.22,6.22,0,0,0,374.89,30.85Zm4.86,4.22h-1.36V26.64h3.35a2.12,2.12,0,0,1,2.36,2.1,2,2,0,0,1-1.83,2v0c1.05.12,1.42.45,1.48,2.14a10.58,10.58,0,0,0,.33,2.2h-1.34a8.3,8.3,0,0,1-.35-2.8,1.1,1.1,0,0,0-1.27-1h-1.37Zm0-4.85h1.76a1.22,1.22,0,0,0,1.23-1.36,1.17,1.17,0,0,0-1.23-1.28h-1.76Z"></path><path d="M19.39,45.25H11.56V33.77h7.83V7.57h35c10,0,18.89,5.85,18.89,17.54,0,6.05-3.13,10.85-8,13,6.79,2.2,11.69,7.62,11.69,16,0,11.69-8.66,19-20.14,19H19.39Zm12.1-11.48H53c5.33,0,8.14-3.45,8.14-7.41S58.32,19.05,53,19.05H31.49Zm0,27.87h23.9c5.43,0,9.4-3.55,9.4-8.15s-4-8.24-9.4-8.24H31.49Z"></path><path d="M134.91,62.16c-6,7.62-14.4,12.21-23.48,12.31-17.64,0-27.87-13.25-27.87-26.61s10.23-26.61,27.87-26.61c10.54,0,26.19,8.66,26.19,28.38v2H95.67c.63,7.72,7.83,13.25,15.45,13.25,5.84,0,10.85-2.82,14.61-7.83Zm-10-19.52c-2.29-7.72-8-11.79-14.92-11.79s-12.53,4.28-14.3,11.79Z"></path><path d="M148.47,22.6h10.86V29h.2c3-4.7,8.56-7.72,15.45-7.72,10.65,0,19.62,8.87,19.62,21.39V73.12H183.75V45c0-9.18-4.8-12.94-12-12.94-7,0-12.42,4.49-12.42,12.73V73.12H148.47Z"></path><path d="M209,32.83h-6.16V22.6H209V9.14l10.85-2.92V22.6h7.73V32.83h-7.73V73.12H209Z"></path><path d="M246.46,7.57v45.2c0,5.84,1.25,7.93,4.49,9.81l5.85,3.33L252,74.47c-11.16-5.32-16.38-9.18-16.38-19.72V7.57Z"></path><path d="M310.75,62.16c-6.05,7.62-14.4,12.21-23.48,12.31-17.64,0-27.86-13.25-27.86-26.61s10.22-26.61,27.86-26.61c10.54,0,26.2,8.66,26.2,28.38v2h-42c.63,7.72,7.83,13.25,15.45,13.25,5.85,0,10.85-2.82,14.61-7.83Zm-10-19.52c-2.3-7.72-8-11.79-14.93-11.79s-12.52,4.28-14.3,11.79Z"></path><path d="M322.54,22.6h10.85V52.24c0,8.46,5.22,12,11.91,12,8.45,0,12.52-5.21,12.52-13V22.6h10.85V71.55C368.67,87,355,93.78,345.6,93.78c-11.37,0-16.49-4.28-21.39-9.91l9.18-5.64c3.45,3.34,6.89,5.33,11.59,5.33,7.2,0,13.46-4.39,13.46-13.26V67.59h-.2C354,72.39,350,74.47,343,74.47c-11.27,0-20.45-8.45-20.45-22.65Z" style="fill:#000"></path></g>
</svg> 